<?xml version="1.0" encoding="UTF-8" standalone="no"?>
<!DOCTYPE svg PUBLIC "-//W3C//DTD SVG 1.1//EN"
 "http://www.w3.org/Graphics/SVG/1.1/DTD/svg11.dtd">
<!-- Generated by graphviz version 10.0.1 (20240210.2158)
 -->
<!-- Title: parent Pages: 1 -->
<svg width="431pt" height="173pt"
 viewBox="0.00 0.00 431.00 173.00" xmlns="http://www.w3.org/2000/svg" xmlns:xlink="http://www.w3.org/1999/xlink">
<g id="graph0" class="graph" transform="scale(1 1) rotate(0) translate(4 169)">
<title>parent</title>
<polygon fill="white" stroke="none" points="-4,4 -4,-169 427,-169 427,4 -4,4"/>
<g id="clust1" class="cluster">
<title>cluster_0</title>
<polygon fill="orange" stroke="orange" points="8,-8 8,-157 275,-157 275,-8 8,-8"/>
</g>
<g id="clust2" class="cluster">
<title>cluster_1</title>
<polygon fill="lightgrey" stroke="lightgrey" points="283,-8 283,-157 415,-157 415,-8 283,-8"/>
</g>
<!-- 2215195345824 -->
<g id="node1" class="node">
<title>2215195345824</title>
<polygon fill="white" stroke="white" points="15.75,-16.5 15.75,-64 132.25,-64 132.25,-16.5 15.75,-16.5"/>
<text text-anchor="middle" x="74" y="-46.7" font-family="Times New Roman,serif" font-size="14.00">PCM&#45;100</text>
<polyline fill="none" stroke="white" points="15.75,-40.25 132.25,-40.25"/>
<text text-anchor="middle" x="74" y="-22.95" font-family="Times New Roman,serif" font-size="14.00">dep_score 3.5541</text>
</g>
<!-- 2215201365152 -->
<g id="node2" class="node">
<title>2215201365152</title>
<polygon fill="white" stroke="white" points="150.75,-16.5 150.75,-64 267.25,-64 267.25,-16.5 150.75,-16.5"/>
<text text-anchor="middle" x="209" y="-46.7" font-family="Times New Roman,serif" font-size="14.00">GDB&#45;100</text>
<polyline fill="none" stroke="white" points="150.75,-40.25 267.25,-40.25"/>
<text text-anchor="middle" x="209" y="-22.95" font-family="Times New Roman,serif" font-size="14.00">dep_score 4.0687</text>
</g>
<!-- 2215162534592 -->
<g id="node3" class="node">
<title>2215162534592</title>
<polygon fill="white" stroke="white" points="82.75,-101 82.75,-148.5 199.25,-148.5 199.25,-101 82.75,-101"/>
<text text-anchor="middle" x="141" y="-131.2" font-family="Times New Roman,serif" font-size="14.00">P2G&#45;100</text>
<polyline fill="none" stroke="white" points="82.75,-124.75 199.25,-124.75"/>
<text text-anchor="middle" x="141" y="-107.45" font-family="Times New Roman,serif" font-size="14.00">dep_score 7.6228</text>
</g>
<!-- 2215162534592&#45;&#45;2215195345824 -->
<g id="edge1" class="edge">
<title>2215162534592&#45;&#45;2215195345824</title>
<path fill="none" stroke="black" d="M122.34,-100.77C113.12,-89.42 102.03,-75.76 92.8,-64.39"/>
</g>
<!-- 2215162534592&#45;&#45;2215201365152 -->
<g id="edge2" class="edge">
<title>2215162534592&#45;&#45;2215201365152</title>
<path fill="none" stroke="black" d="M159.94,-100.77C169.29,-89.42 180.55,-75.76 189.92,-64.39"/>
</g>
<!-- 2215201363040 -->
<g id="node4" class="node">
<title>2215201363040</title>
<polygon fill="white" stroke="white" points="290.75,-16.5 290.75,-64 407.25,-64 407.25,-16.5 290.75,-16.5"/>
<text text-anchor="middle" x="349" y="-46.7" font-family="Times New Roman,serif" font-size="14.00">P2G&#45;501</text>
<polyline fill="none" stroke="white" points="290.75,-40.25 407.25,-40.25"/>
<text text-anchor="middle" x="349" y="-22.95" font-family="Times New Roman,serif" font-size="14.00">dep_score 1.5941</text>
</g>
<!-- 2215201364432 -->
<g id="node5" class="node">
<title>2215201364432</title>
<polygon fill="white" stroke="white" points="290.75,-101 290.75,-148.5 407.25,-148.5 407.25,-101 290.75,-101"/>
<text text-anchor="middle" x="349" y="-131.2" font-family="Times New Roman,serif" font-size="14.00">P2G&#45;101</text>
<polyline fill="none" stroke="white" points="290.75,-124.75 407.25,-124.75"/>
<text text-anchor="middle" x="349" y="-107.45" font-family="Times New Roman,serif" font-size="14.00">dep_score 1.5941</text>
</g>
<!-- 2215201364432&#45;&#45;2215201363040 -->
<g id="edge3" class="edge">
<title>2215201364432&#45;&#45;2215201363040</title>
<path fill="none" stroke="black" d="M349,-100.77C349,-89.42 349,-75.76 349,-64.39"/>
</g>
</g>
</svg>
